<?xml version="1.0" standalone="no"?>
<!DOCTYPE svg PUBLIC "-//W3C//DTD SVG 20010904//EN"
 "http://www.w3.org/TR/2001/REC-SVG-20010904/DTD/svg10.dtd">
<svg version="1.0" xmlns="http://www.w3.org/2000/svg"
 width="222.000000pt" height="227.000000pt" viewBox="0 0 222.000000 227.000000"
 preserveAspectRatio="xMidYMid meet">

<g transform="translate(0.000000,227.000000) scale(0.100000,-0.100000)"
fill="#000000" stroke="none">
<path d="M747 2227 l21 -35 -36 5 -37 5 33 -22 c37 -25 44 -46 10 -30 -13 6
-3 -7 22 -29 46 -42 48 -54 4 -25 -39 26 -38 10 3 -31 l38 -37 -32 16 c-45 23
-50 20 -22 -11 13 -14 17 -23 9 -18 -8 5 -4 -4 10 -19 14 -15 25 -39 25 -52 1
-24 -1 -23 -33 16 -19 22 -48 48 -65 56 -47 25 -162 54 -210 54 -67 0 -149
-47 -247 -140 -73 -70 -79 -78 -45 -61 22 12 51 29 64 38 l25 18 -18 -28 c-30
-45 1 -32 65 30 63 60 79 63 29 6 -17 -18 -30 -37 -30 -42 0 -4 -19 -13 -42
-20 -24 -7 -63 -19 -88 -27 -25 -9 -63 -19 -85 -24 -22 -5 -51 -14 -65 -20
-20 -8 -12 -10 45 -6 69 4 69 4 35 -11 -53 -23 -20 -27 44 -5 31 10 56 18 56
16 0 -1 -19 -17 -43 -34 -54 -41 -18 -31 60 16 74 45 93 44 25 -1 -28 -20 -52
-40 -52 -45 0 -12 72 23 117 56 56 42 50 26 -12 -31 -53 -49 -56 -54 -25 -39
19 9 51 29 70 44 56 43 90 63 90 52 0 -5 -24 -26 -54 -47 -30 -21 -57 -44 -60
-52 -4 -10 3 -8 23 6 38 28 45 26 25 -4 l-16 -25 46 26 c25 14 48 30 51 35 4
5 11 9 18 9 6 0 -6 -17 -26 -38 -50 -51 -47 -60 9 -21 37 25 44 28 35 11 -18
-33 -13 -37 16 -11 20 18 25 20 20 7 -8 -23 -2 -23 36 4 l32 23 -18 -28 -18
-28 23 12 c13 6 31 18 41 27 27 24 20 1 -10 -30 l-27 -28 23 0 c18 0 5 -12
-50 -48 -88 -58 -124 -95 -55 -56 68 38 66 23 -2 -19 -33 -20 -65 -44 -73 -54
-10 -13 -4 -11 24 6 21 13 40 21 43 18 3 -3 -4 -8 -15 -12 -11 -3 -35 -25 -53
-48 -18 -23 -23 -35 -13 -26 46 37 47 29 3 -19 -54 -58 -60 -72 -20 -47 l27
18 -27 -29 c-14 -16 -40 -54 -58 -84 l-32 -55 48 45 c32 30 42 37 32 19 -17
-28 -50 -130 -44 -136 2 -2 12 16 22 41 25 61 35 58 17 -4 -23 -78 -12 -108
12 -33 20 64 42 87 32 33 -4 -16 -2 -32 3 -35 8 -5 15 12 39 105 l9 35 2 -35
c1 -33 2 -34 10 -10 5 14 14 45 20 69 18 69 21 43 4 -38 -26 -123 -6 -93 45
69 l21 65 -5 -52 c-5 -68 9 -68 22 0 8 41 11 45 12 20 1 -24 5 -31 16 -27 8 4
15 17 15 29 0 13 5 27 10 30 6 3 10 0 10 -7 0 -12 20 25 35 67 17 46 15 -10
-4 -107 -37 -196 -46 -306 -46 -588 1 -212 5 -301 18 -386 16 -99 52 -252 73
-309 7 -19 7 -19 -17 1 -35 30 -54 40 -44 23 4 -8 16 -23 26 -34 18 -20 17
-20 -44 -17 -59 2 -61 2 -37 -12 20 -13 75 -15 303 -16 192 0 285 4 300 12 21
11 21 11 2 18 -18 6 -17 8 10 23 17 9 26 16 20 17 -5 0 -26 -10 -45 -21 -32
-20 -34 -20 -17 -2 9 11 49 37 87 58 39 21 68 40 66 42 -5 6 -95 -35 -127 -58
-38 -27 -39 -6 -2 35 l28 30 -28 -17 -27 -17 0 28 c0 16 14 48 31 73 29 39 29
41 6 20 l-26 -23 5 51 c5 52 69 277 145 506 39 120 144 345 160 345 5 0 9 4 9
10 0 5 14 31 31 57 20 30 29 39 26 24 l-6 -23 26 23 c28 26 24 14 -16 -41
l-25 -35 39 35 c40 36 39 28 -2 -27 -13 -18 -21 -33 -18 -33 3 0 1 -9 -5 -19
-11 -22 1 -23 39 -2 23 13 22 11 -5 -25 l-29 -38 30 19 30 19 -26 -30 c-15
-16 -32 -40 -39 -54 -12 -24 -11 -24 20 5 l33 30 -22 -33 c-28 -40 -14 -42 24
-2 16 16 31 27 34 25 3 -3 -20 -30 -49 -60 -54 -54 -61 -76 -11 -33 14 13 20
16 14 8 -7 -8 -13 -18 -13 -22 0 -4 6 -7 13 -5 8 1 12 -12 11 -42 l-1 -44 18
24 c10 13 19 31 19 39 1 10 4 8 10 -5 7 -16 9 -12 16 24 7 42 8 43 17 20 17
-43 20 -1 3 48 -21 61 -19 67 5 18 l20 -40 -5 35 c-5 33 -5 34 9 16 13 -18 15
-18 15 -2 0 9 -7 30 -15 46 -12 23 -12 28 -1 26 8 -1 20 -7 28 -13 11 -9 14
-8 15 5 1 9 6 33 11 52 10 34 10 34 11 -20 1 -39 4 -51 11 -40 8 12 10 10 10
-10 0 -20 2 -22 10 -10 8 12 10 10 10 -10 0 -20 2 -22 10 -10 7 11 10 6 10
-20 0 -26 3 -31 10 -20 9 13 10 13 10 0 1 -9 6 -5 16 10 11 19 14 20 10 5 -3
-11 -8 -33 -11 -50 l-6 -30 15 25 c15 24 15 24 17 -30 l2 -55 6 42 c8 47 21
69 21 35 0 -12 5 -22 10 -22 6 0 11 -17 11 -37 1 -38 1 -38 9 -8 16 64 11 119
-18 180 -34 71 -123 179 -180 218 -22 16 -42 38 -45 50 -5 19 -2 18 19 -8 24
-27 25 -28 19 -6 -5 16 -4 21 4 17 6 -4 11 -17 11 -29 0 -18 2 -19 10 -7 8 13
10 12 11 -5 1 -11 5 -4 9 15 7 35 7 35 9 5 1 -23 3 -27 11 -15 7 12 10 8 10
-15 0 -23 3 -27 10 -15 7 12 10 8 10 -15 l1 -30 14 25 15 25 -6 -30 c-4 -23
-3 -26 5 -15 9 12 11 9 12 -15 0 -29 1 -29 15 9 21 57 23 55 18 -10 -3 -42 -2
-53 5 -39 9 19 10 18 11 -5 1 -23 2 -24 11 -5 6 14 8 7 4 -25 l-5 -45 20 40
20 40 -5 -38 c-3 -22 -1 -36 4 -33 5 4 14 -6 19 -21 10 -27 10 -27 12 12 1 33
3 36 11 20 7 -16 8 -13 6 14 -4 31 -3 32 10 16 18 -26 17 2 -2 35 -21 36 -18
49 5 20 11 -14 20 -20 20 -14 0 6 -9 23 -20 37 -24 31 -26 44 -3 26 9 -8 -3
11 -28 42 -24 31 -47 54 -50 53 -7 -4 -59 60 -59 72 0 5 13 -7 30 -26 36 -43
40 -20 4 28 -22 28 -23 32 -7 24 11 -6 25 -18 32 -26 8 -9 17 -14 21 -11 4 2
18 -7 30 -20 13 -14 28 -25 33 -25 6 0 20 -8 31 -17 20 -17 20 -17 6 2 -8 11
-25 32 -39 48 -14 15 -20 27 -13 27 6 0 14 -5 17 -10 4 -6 11 -7 17 -4 7 5 8
2 3 -6 -5 -9 -4 -11 3 -6 6 4 26 0 43 -9 50 -26 23 2 -33 34 -29 17 -44 31
-36 33 7 3 -5 8 -28 12 -57 10 -124 35 -99 37 12 0 5 4 -15 9 -24 6 -43 4 -63
-6 -15 -9 -34 -13 -40 -10 -7 2 -3 5 8 5 17 1 17 3 5 11 -11 7 -11 10 -2 10 7
0 11 4 8 9 -3 5 4 11 15 14 12 3 18 10 14 16 -3 7 3 11 17 12 22 0 22 1 3 9
-16 7 -16 9 -4 9 9 1 19 8 23 16 3 8 12 15 20 15 8 0 18 5 22 12 5 8 1 9 -12
5 -14 -5 -13 -2 6 13 19 15 20 18 6 13 -15 -5 -17 -3 -11 8 5 8 -2 5 -15 -6
-15 -13 -21 -15 -16 -5 4 8 -3 3 -17 -12 -16 -18 -28 -23 -35 -16 -6 6 -15 2
-26 -14 -9 -12 -24 -23 -34 -23 -23 0 -46 -23 -99 -99 -43 -60 -59 -67 -24
-10 10 17 22 41 26 55 7 24 7 24 -10 4 -20 -24 -10 -1 17 37 20 29 23 42 8 33
-15 -9 -12 8 5 32 10 15 13 32 9 49 l-7 27 -13 -29 c-12 -28 -12 -28 -9 16 5
60 -2 85 -21 69 -11 -9 -14 -7 -14 14 0 14 -4 29 -10 32 -5 3 -10 -1 -10 -10
0 -10 -10 -5 -30 17 l-31 33 23 -40 c18 -32 19 -37 5 -26 -10 8 -20 11 -24 7
-3 -3 -1 -6 5 -6 7 0 12 -7 12 -16 0 -9 -5 -12 -12 -8 -7 4 -4 -3 7 -16 12
-14 14 -20 5 -15 -8 4 -2 -6 13 -22 l28 -30 -28 4 c-15 3 -24 1 -18 -4 21 -17
49 -54 40 -53 -21 5 -27 -1 -16 -14 9 -10 9 -16 1 -21 -8 -5 -7 -11 2 -23 11
-12 11 -14 0 -11 -7 2 -24 30 -36 61 -29 70 -77 146 -113 179 l-27 24 17 -27
c9 -14 13 -28 9 -31 -4 -2 -2 -2 5 -1 6 2 17 -3 23 -11 21 -25 -5 -22 -55 8
-46 26 -45 29 3 10 31 -12 -7 26 -47 47 -26 14 -30 19 -17 20 42 0 -17 29 -64
31 -45 2 -45 2 -10 8 35 7 34 7 -25 21 -47 10 -79 11 -145 2 -47 -6 -94 -13
-105 -17 -19 -6 -19 -6 -2 8 18 15 17 16 -10 20 -15 2 -7 3 20 2 33 -1 44 1
38 9 -7 8 6 10 42 9 38 -2 47 0 32 6 -17 8 -15 10 15 11 35 2 35 2 -10 12 -25
5 -58 13 -75 18 -26 8 -23 9 18 6 26 -2 50 0 53 5 3 5 -11 9 -30 9 -19 0 -38
5 -42 11 -5 8 12 9 57 5 60 -6 62 -6 34 8 l-30 14 45 -5 c34 -3 41 -2 30 6
-12 8 -8 11 20 11 33 1 34 1 16 15 -19 14 -18 15 11 15 18 0 34 4 38 9 3 6 -6
8 -20 5 -35 -6 -31 2 13 26 20 12 28 18 17 15 -11 -4 -62 -11 -112 -16 -95 -9
-135 -22 -165 -56 -11 -11 -32 -19 -55 -20 l-38 -2 30 14 c17 8 35 14 42 15 6
0 14 4 17 8 3 5 -9 7 -27 5 -29 -3 -28 -2 12 15 27 12 39 21 30 24 -8 3 0 8
19 12 17 4 32 12 32 16 0 5 -6 8 -12 6 -7 -3 -26 -7 -43 -11 -30 -6 -29 -6 10
24 22 17 45 31 52 31 6 0 15 5 18 10 9 15 -42 2 -82 -20 -29 -17 -31 -17 -26
-2 3 10 -9 3 -29 -16 -19 -18 -37 -30 -40 -26 -3 3 -14 -8 -24 -25 -10 -17
-22 -31 -26 -31 -4 0 -16 -17 -27 -37 -11 -21 -20 -32 -21 -25 0 7 -5 10 -11
6 -6 -3 -3 9 7 27 14 28 14 32 2 21 -14 -11 -15 -7 -10 34 3 34 2 45 -7 40 -7
-5 -11 5 -12 31 -1 33 -2 35 -9 13 l-7 -25 -8 30 c-7 25 -9 27 -15 10 -6 -18
-9 -16 -24 12 -9 18 -26 38 -38 44 l-21 12 20 -36z m260 -269 c-38 -58 -167
-190 -167 -170 0 7 19 31 42 54 23 23 34 38 24 35 -10 -4 -15 -3 -11 3 3 6 12
10 18 10 15 0 48 36 40 44 -4 3 1 6 10 6 9 0 19 4 22 10 3 5 0 8 -7 7 -7 -2
-10 -2 -5 0 4 3 5 9 1 14 -3 5 6 13 19 18 14 6 28 15 32 21 4 6 9 9 12 6 2 -2
-11 -28 -30 -58z m-480 -13 c-13 -20 -30 -34 -42 -34 -17 0 -14 5 17 34 47 44
53 44 25 0z m65 2 c-28 -30 -28 -41 1 -26 19 11 20 10 10 -3 -15 -17 -83 -23
-83 -7 0 6 6 9 14 6 7 -3 23 7 35 24 12 16 27 29 33 29 6 0 2 -10 -10 -23z
m275 1 c-3 -8 -6 -5 -6 6 -1 11 2 17 5 13 3 -3 4 -12 1 -19z m-463 -9 c-14
-16 -15 -22 -5 -28 9 -6 10 -11 2 -15 -6 -4 -11 -1 -11 6 0 10 -3 9 -10 -2 -5
-8 -11 -12 -14 -9 -5 5 42 69 51 69 3 0 -2 -9 -13 -21z m56 -9 c-12 -16 -24
-30 -26 -30 -3 0 4 14 16 30 12 17 24 30 26 30 3 0 -4 -13 -16 -30z m186 -25
c-11 -8 -27 -15 -35 -15 -10 1 -7 6 9 15 33 19 50 18 26 0z m74 -30 c-14 -17
-40 -20 -40 -6 0 5 10 12 23 14 12 2 24 5 26 6 2 0 -2 -6 -9 -14z m20 -25
c-12 -8 -10 -10 9 -10 20 0 21 -2 11 -15 -10 -12 -10 -15 3 -15 9 0 21 -9 27
-20 17 -32 -5 -24 -45 17 -26 27 -32 39 -23 45 7 4 18 8 23 8 6 0 3 -5 -5 -10z
m299 6 c-2 -2 -17 -6 -34 -10 -22 -5 -26 -4 -15 4 14 9 59 15 49 6z m-127 -46
c-18 -11 -35 -20 -38 -20 -12 0 10 22 30 30 38 15 42 10 8 -10z m125 -21 l-6
23 23 -21 c25 -24 46 -27 46 -8 0 6 11 -1 25 -18 21 -26 24 -27 25 -10 l1 20
11 -20 c6 -11 16 -24 22 -28 11 -9 2 -7 -89 19 -27 8 -68 15 -90 17 -31 1 -41
6 -44 22 l-3 20 22 -20 23 -20 -8 25 -7 25 27 -25 28 -25 -6 24z m236 -90 c12
-7 17 -6 17 3 1 7 8 2 16 -12 l15 -25 -5 35 c-4 33 -3 32 19 -15 l23 -50 -4
70 -4 70 15 -65 c20 -87 21 -89 32 -60 10 24 10 23 15 -13 5 -46 -8 -48 -69
-7 -24 17 -62 39 -83 50 -38 19 -70 54 -70 75 1 5 12 -3 26 -20 19 -21 24 -24
19 -10 -3 11 -8 34 -11 50 -3 20 2 14 14 -18 10 -27 25 -53 35 -58z m-328 76
c-5 -2 -28 -6 -50 -10 l-40 -7 28 -15 c35 -18 29 -28 -7 -12 -25 12 -33 29
-19 42 3 4 27 7 52 6 25 0 42 -2 36 -4z m-245 -70 c-7 -8 -17 -15 -23 -15 -5
0 -2 9 8 20 21 23 35 19 15 -5z m745 -95 c5 -8 3 -11 -6 -8 -8 3 -15 20 -16
44 -2 37 -1 37 6 8 4 -17 11 -37 16 -44z m-414 -4 c6 -6 9 -3 9 9 0 26 11 12
20 -27 l8 -33 1 40 c2 70 21 78 22 10 1 -53 3 -56 9 -25 l7 35 2 -44 c1 -51
11 -48 22 6 6 26 6 17 3 -29 -6 -73 0 -87 15 -35 l9 32 1 -35 c1 -43 -9 -59
-46 -77 -15 -7 -19 -11 -8 -8 19 5 19 5 1 -10 -10 -8 -24 -16 -30 -18 -6 -2
-9 -7 -6 -10 3 -3 25 3 49 14 38 16 42 17 30 2 -13 -15 -12 -15 11 -3 14 7 34
20 45 29 20 16 20 16 1 -6 -23 -27 -11 -30 18 -6 12 10 3 -3 -19 -27 -22 -24
-31 -37 -19 -27 29 24 41 21 18 -5 -15 -17 -10 -16 20 7 40 29 40 21 2 -25
-21 -25 -21 -25 0 -7 27 22 40 22 23 0 -7 -10 5 -2 26 17 22 19 32 26 22 14
-32 -38 -9 -49 29 -13 18 17 22 18 27 5 4 -9 3 -15 -1 -14 -38 9 -160 -113
-176 -177 l-7 -29 21 19 c21 19 21 19 15 -1 -4 -10 5 -1 19 21 25 38 37 34 16
-6 -16 -29 5 -24 29 7 12 15 21 21 21 13 0 -11 2 -11 10 1 5 8 10 11 10 5 0
-5 5 -3 10 5 9 13 10 13 10 0 1 -9 6 -5 15 10 8 14 14 21 15 16 0 -5 9 -1 20
9 13 12 20 14 20 5 0 -7 7 -10 18 -6 12 4 12 2 -3 -7 -29 -18 -115 -107 -115
-120 0 -6 -9 -21 -21 -33 -11 -12 -21 -28 -23 -35 -1 -8 -8 -25 -15 -37 -7
-13 -10 -26 -7 -29 2 -3 1 -15 -4 -28 -7 -19 -6 -22 8 -20 9 2 20 4 25 4 4 1
12 12 19 26 6 13 15 22 19 19 5 -3 9 5 10 18 0 22 1 22 9 3 7 -17 9 -16 10 10
l2 30 8 -30 8 -30 1 35 c1 27 4 31 11 20 8 -12 10 -10 11 10 0 23 1 23 9 5 7
-17 9 -14 11 15 l2 35 7 -35 c5 -22 8 -27 9 -13 0 12 4 29 7 38 5 13 8 14 15
3 6 -8 9 3 10 32 l2 45 7 -40 c5 -30 8 -33 9 -13 1 30 16 45 24 24 3 -8 -8
-35 -24 -61 -78 -123 -123 -237 -234 -595 -71 -228 -124 -370 -138 -367 -6 1
-18 24 -28 50 -25 73 -39 79 -25 10 7 -33 16 -65 20 -71 13 -21 -9 -13 -28 10
-19 22 -19 22 -27 1 -4 -11 -14 -23 -23 -26 -13 -5 -13 0 4 34 12 22 25 52 31
67 l10 27 -30 -29 c-17 -16 -43 -47 -58 -69 -35 -50 -44 -27 -13 32 18 36 46
188 36 198 -8 8 -35 -46 -51 -102 -31 -104 -33 -112 -34 -92 -1 10 -7 24 -14
32 -21 21 -74 190 -91 290 -50 294 -49 620 1 934 15 94 20 109 51 143 43 47
54 42 20 -9 -63 -97 -64 -100 -8 -48 l53 50 -46 -62 c-49 -65 -65 -106 -21
-54 32 38 52 41 26 4 -11 -16 -29 -48 -41 -73 l-22 -45 45 50 c25 28 46 53 46
56 0 4 8 10 17 13 15 6 14 3 -3 -16 -11 -13 -31 -41 -43 -62 l-22 -39 36 31
c47 42 55 40 16 -3 -33 -39 -43 -69 -13 -42 29 26 35 20 13 -11 -11 -16 -26
-47 -34 -70 l-15 -42 40 41 c22 22 42 39 45 36 2 -3 -5 -24 -17 -47 -26 -51
-20 -63 9 -18 26 41 27 28 2 -42 -25 -71 -37 -150 -23 -150 6 0 15 12 21 28 8
21 9 13 4 -38 -3 -42 -2 -61 4 -55 16 16 53 112 53 137 1 20 3 19 21 -12 l20
-35 -5 85 c-4 79 -4 82 8 46 18 -56 29 -29 21 49 -8 70 -1 85 14 33 l9 -33 1
35 c0 19 -6 60 -14 90 -8 30 -13 56 -10 58 2 2 16 -22 31 -55 33 -68 46 -49
15 22 -11 25 -16 45 -10 45 16 0 10 31 -13 63 -22 30 -11 30 25 -1 34 -29 10
26 -29 69 -14 14 -26 34 -28 45 -2 10 -5 24 -6 29 -1 6 -1 24 0 40 l3 30 4
-30 c3 -16 9 -34 14 -39z m-210 -22 c-11 -15 -21 -23 -21 -18 0 14 31 56 37
50 3 -3 -4 -17 -16 -32z m759 -20 c0 -2 -9 0 -20 6 -11 6 -20 13 -20 16 0 2 9
0 20 -6 11 -6 20 -13 20 -16z m-865 -51 c-9 -50 -17 -34 -9 18 4 24 9 38 12
31 2 -7 1 -29 -3 -49z m745 23 c0 -2 -7 -7 -16 -10 -8 -3 -12 -2 -9 4 6 10 25
14 25 6z m-250 -36 c0 -20 -5 -30 -15 -30 -17 0 -18 4 -9 38 9 32 24 27 24 -8z
m266 15 c-11 -8 -25 -15 -30 -15 -6 1 0 7 14 15 32 19 40 18 16 0z m-209 -27
c-3 -8 -6 -5 -6 6 -1 11 2 17 5 13 3 -3 4 -12 1 -19z m-30 -10 c-3 -8 -6 -5
-6 6 -1 11 2 17 5 13 3 -3 4 -12 1 -19z m693 -2 c0 -2 -7 -7 -16 -10 -8 -3
-12 -2 -9 4 6 10 25 14 25 6z m-420 -17 c-12 -8 -8 -9 15 -6 27 5 28 4 10 -9
-14 -10 -15 -14 -4 -14 8 0 22 -9 32 -20 27 -32 -2 -23 -39 12 -38 36 -42 48
-16 48 15 0 15 -2 2 -11z m293 -16 c-7 -2 -19 -2 -25 0 -7 3 -2 5 12 5 14 0
19 -2 13 -5z m-613 -7 c0 -3 -4 -8 -10 -11 -5 -3 -10 -1 -10 4 0 6 5 11 10 11
6 0 10 -2 10 -4z m403 -69 c6 3 7 1 3 -5 -4 -7 -2 -12 3 -12 6 0 11 -4 11 -9
0 -11 -107 45 -117 61 -3 7 15 0 41 -15 27 -15 53 -24 59 -20z m144 27 c-3 -3
-12 -4 -19 -1 -8 3 -5 6 6 6 11 1 17 -2 13 -5z m145 -9 c3 3 11 -3 19 -12 10
-14 10 -16 0 -6 -7 6 -19 9 -26 7 -7 -3 -15 2 -19 12 -5 13 -4 14 7 6 8 -7 16
-10 19 -7z m-205 -71 c-3 -3 -12 -4 -19 -1 -8 3 -5 6 6 6 11 1 17 -2 13 -5z
m67 -9 c3 -8 1 -15 -4 -15 -6 0 -10 7 -10 15 0 8 2 15 4 15 2 0 6 -7 10 -15z
m-206 -31 c-9 -9 -22 -14 -30 -11 -8 3 -4 8 12 15 35 15 37 14 18 -4z m-197
-35 c-5 -13 -10 -19 -10 -12 -1 15 10 45 15 40 3 -2 0 -15 -5 -28z m129 11 c0
-5 -5 -10 -11 -10 -5 0 -7 5 -4 10 3 6 8 10 11 10 2 0 4 -4 4 -10z m67 -52
c-3 -8 -6 -5 -6 6 -1 11 2 17 5 13 3 -3 4 -12 1 -19z m-25 -40 c-6 -6 -7 0 -4
19 5 21 7 23 10 9 2 -10 0 -22 -6 -28z m278 -6 c0 -12 -3 -12 -15 -2 -8 7 -15
13 -15 15 0 1 7 2 15 2 8 0 15 -7 15 -15z m0 -53 c0 8 2 12 5 9 3 -3 2 -13 -1
-23 -6 -16 -9 -15 -26 6 -33 42 -40 65 -9 29 17 -19 31 -29 31 -21z m-710
-1059 c0 -13 -1 -13 -10 0 -5 8 -10 22 -10 30 0 13 1 13 10 0 5 -8 10 -22 10
-30z"/>
<path d="M1159 1373 l-24 -28 28 24 c25 23 32 31 24 31 -2 0 -14 -12 -28 -27z"/>
<path d="M1948 1573 c7 -3 16 -2 19 1 4 3 -2 6 -13 5 -11 0 -14 -3 -6 -6z"/>
<path d="M2040 1352 c6 -13 14 -21 18 -18 3 4 -2 14 -12 24 -18 16 -18 16 -6
-6z"/>
<path d="M1620 885 c-8 -9 -8 -15 -2 -15 12 0 26 19 19 26 -2 2 -10 -2 -17
-11z"/>
<path d="M1256 317 c-30 -40 -35 -64 -5 -27 24 31 41 60 35 60 -3 0 -16 -15
-30 -33z"/>
</g>
</svg>
