<?xml version="1.0" standalone="no"?>
<!DOCTYPE svg PUBLIC "-//W3C//DTD SVG 20010904//EN"
 "http://www.w3.org/TR/2001/REC-SVG-20010904/DTD/svg10.dtd">
<svg version="1.0" xmlns="http://www.w3.org/2000/svg"
 width="258.000000pt" height="195.000000pt" viewBox="0 0 258.000000 195.000000"
 preserveAspectRatio="xMidYMid meet">

<g transform="translate(0.000000,195.000000) scale(0.100000,-0.100000)"
fill="#000000" stroke="none">
<path d="M1550 1911 c14 -11 19 -21 12 -21 -7 0 -10 -4 -7 -10 9 -15 27 -12
19 3 -4 6 -3 8 1 4 5 -4 10 -13 11 -20 1 -7 6 -21 10 -31 6 -16 0 -14 -32 9
-32 25 -36 26 -19 6 11 -13 19 -25 17 -28 -2 -3 0 -8 4 -11 4 -4 4 -1 -1 7 -6
10 -4 12 4 7 7 -5 10 -11 7 -14 -3 -3 2 -15 11 -26 18 -20 18 -21 -2 -5 -42
33 -49 31 -15 -6 21 -22 28 -35 18 -32 -44 17 -51 17 -25 2 35 -20 34 -25 -5
-21 -30 4 -31 3 -13 -10 10 -8 22 -14 25 -14 4 0 7 -6 7 -14 0 -8 -6 -12 -14
-9 -7 3 -11 8 -8 12 2 4 -2 8 -10 8 -20 0 -8 -15 29 -38 33 -20 29 -27 -5 -8
-11 6 -29 12 -40 14 -16 3 -18 1 -8 -16 6 -11 11 -34 11 -50 1 -16 5 -32 9
-35 5 -3 6 3 2 13 -4 11 -2 15 3 10 10 -10 13 -58 3 -51 -4 2 -10 -3 -13 -12
-6 -15 30 -74 46 -74 4 0 8 -6 8 -12 -1 -7 -16 5 -35 26 -20 22 -34 44 -33 50
3 19 -13 59 -54 128 -40 70 -98 121 -125 111 -12 -5 -11 -8 6 -18 12 -6 19
-14 16 -17 -3 -3 6 -13 21 -22 14 -10 23 -20 20 -23 -3 -3 -17 4 -32 16 -15
11 -32 21 -38 21 -6 0 6 -11 27 -25 37 -26 49 -42 23 -32 -30 12 -24 -7 9 -30
19 -13 40 -33 46 -46 l12 -22 -24 21 c-25 23 -62 44 -76 44 -4 0 6 -9 23 -19
32 -20 47 -37 50 -58 2 -12 -90 29 -141 62 -40 27 -215 29 -241 3 -16 -15 -14
-16 22 -8 48 11 54 7 14 -10 -23 -10 -28 -16 -19 -26 6 -7 18 -10 26 -7 11 4
14 2 9 -5 -4 -7 7 -5 30 4 20 8 41 13 47 10 8 -3 8 -5 -1 -5 -7 -1 -10 -5 -7
-11 3 -5 0 -7 -9 -4 -8 3 -23 1 -33 -5 -15 -9 -13 -10 11 -5 22 5 27 4 21 -5
-4 -8 4 -7 23 3 17 9 39 16 49 15 10 0 -4 -11 -32 -24 -58 -27 -56 -31 5 -10
24 8 45 13 48 10 3 -3 1 -5 -4 -5 -6 0 -19 -7 -30 -16 -10 -8 -14 -13 -7 -10
6 3 22 2 35 -3 l23 -9 -24 -9 c-20 -8 -21 -11 -8 -16 10 -4 17 -2 17 3 0 6 7
10 16 10 8 0 12 5 9 10 -7 11 42 33 59 27 6 -3 -5 -9 -24 -15 l-35 -10 30 -2
c28 -2 29 -2 6 -9 -14 -4 -26 -12 -28 -18 -3 -9 5 -9 32 -2 20 6 52 8 73 6 37
-4 37 -4 -8 -7 l-45 -3 40 -6 40 -7 -35 -11 -35 -11 30 -2 c30 -2 30 -2 5 -10
-21 -7 -16 -8 25 -11 l50 -2 -45 -7 c-25 -4 -36 -8 -25 -10 29 -4 -29 -17 -81
-19 -22 0 -62 -12 -89 -25 -35 -18 -53 -22 -66 -15 -10 5 -39 9 -65 9 -60 0
-51 10 18 20 49 7 50 8 13 9 -50 1 -111 -26 -164 -74 -46 -42 -56 -36 -14 8
23 23 24 27 8 21 -19 -8 -19 -7 -3 16 32 44 40 66 14 35 -30 -34 -33 -28 -11
18 15 29 15 30 0 12 -8 -11 -21 -37 -27 -57 -6 -21 -15 -38 -19 -38 -4 0 -5
-8 -2 -19 3 -10 0 -21 -5 -25 -6 -3 -10 9 -10 30 0 20 -5 41 -11 47 -6 6 -11
29 -12 52 0 31 -2 36 -9 20 -8 -19 -9 -19 -9 3 -1 12 -10 31 -22 43 l-21 21 7
-24 7 -23 -24 23 c-13 12 -28 22 -34 22 -5 0 0 -8 11 -16 13 -11 16 -18 8 -21
-8 -3 -2 -13 15 -28 23 -20 25 -26 13 -37 -8 -7 -11 -8 -7 -1 3 6 1 15 -5 19
-8 4 -9 3 -5 -4 4 -7 2 -12 -5 -12 -6 0 0 -9 15 -21 20 -16 24 -25 17 -37 -7
-13 -4 -24 12 -42 13 -14 15 -19 5 -11 -20 15 -25 2 -6 -17 6 -6 9 -15 5 -18
-3 -4 -14 10 -23 29 -13 27 -23 36 -38 33 -12 -2 -27 2 -35 8 -8 6 -6 -2 5
-19 14 -21 15 -27 4 -20 -8 5 -19 10 -25 10 -5 1 -32 11 -58 23 -66 30 -82 28
-29 -4 23 -14 42 -27 42 -30 0 -3 -5 -2 -11 2 -6 3 -39 8 -72 9 -58 3 -60 2
-32 -10 l30 -13 -40 4 c-33 3 -35 2 -15 -5 24 -9 24 -9 -8 -10 -19 -1 -31 -5
-27 -11 4 -6 -6 -11 -22 -11 l-28 -1 30 -8 c28 -7 29 -8 5 -10 -14 -1 -34 -5
-45 -10 -14 -6 -6 -7 25 -4 l45 5 -40 -19 c-22 -11 -51 -32 -65 -48 l-25 -29
25 21 c14 12 36 27 50 34 18 10 15 4 -14 -23 -25 -24 -36 -42 -32 -52 3 -9 2
-13 -4 -10 -12 7 -12 -3 0 -30 l9 -20 1 20 c1 18 2 17 15 -5 14 -25 14 -25 9
10 -6 32 -5 34 8 16 14 -18 15 -17 11 15 -2 26 -1 29 6 14 8 -19 9 -19 12 4 4
24 39 40 39 18 1 -7 10 -1 21 13 12 14 30 26 40 26 11 1 21 3 24 4 3 1 8 3 13
4 4 1 13 5 20 10 11 7 12 4 3 -12 -17 -31 -13 -50 5 -24 8 12 19 20 24 17 4
-3 11 2 14 11 4 9 9 14 13 11 3 -4 14 -2 25 4 18 10 19 9 4 -19 -8 -16 -29
-35 -45 -42 -33 -13 -122 -107 -130 -135 -1 -5 -12 -21 -24 -34 l-22 -25 27
17 c40 25 44 21 8 -9 -17 -15 -29 -29 -26 -32 3 -2 -2 -19 -10 -36 -14 -29
-14 -29 1 -11 15 19 16 16 9 -46 -6 -64 6 -132 26 -144 5 -3 2 12 -7 34 -11
27 -13 54 -9 85 9 61 21 65 20 8 -1 -34 0 -37 3 -12 2 19 9 39 14 45 5 5 9 18
9 30 0 11 4 26 9 33 6 10 10 7 13 -13 3 -15 0 -32 -8 -40 -16 -16 -19 -45 -4
-45 5 0 9 3 8 8 -4 10 26 72 34 72 4 0 5 7 2 15 -4 8 -2 21 4 28 5 6 16 32 22
57 l13 45 13 -35 c11 -31 13 -32 13 -10 1 14 6 32 11 40 8 11 9 8 4 -11 -3
-15 -1 -30 5 -33 6 -4 12 -35 13 -69 l2 -62 3 56 c3 42 9 61 25 75 12 11 19
14 16 9 -4 -6 -3 -26 2 -45 7 -31 8 -32 9 -8 2 41 12 63 22 46 7 -10 9 -8 10
7 1 14 4 10 9 -10 l8 -30 2 30 3 30 7 -35 7 -35 2 33 c1 44 17 32 27 -21 l9
-42 6 60 c5 54 6 50 7 -36 5 -277 62 -573 141 -726 11 -23 21 -46 21 -51 0 -4
-16 -14 -35 -21 -19 -7 -40 -21 -45 -32 -10 -19 -4 -19 290 -19 324 0 334 2
254 47 -21 12 -56 25 -76 28 -21 4 -38 8 -38 10 0 1 16 45 35 96 49 130 108
340 140 494 30 148 64 369 66 435 1 45 1 45 10 -14 12 -81 22 -86 14 -6 -5 47
-4 61 4 50 6 -8 11 -27 11 -41 0 -15 3 -42 7 -60 l7 -34 7 35 c5 29 7 23 9
-30 1 -46 4 -58 9 -40 6 22 8 20 13 -19 4 -24 11 -48 16 -53 5 -5 7 4 4 24 -7
51 8 26 18 -29 7 -47 8 -47 9 -10 1 45 21 41 21 -4 0 -18 4 -28 10 -24 6 4 11
-11 11 -37 1 -33 4 -27 11 31 13 102 -3 173 -48 218 -19 18 -34 39 -35 46 0 7
-2 20 -4 29 -5 28 14 32 24 6 6 -13 10 -18 11 -13 0 6 5 3 10 -5 8 -12 10 -10
11 10 1 22 3 20 20 -15 12 -27 19 -34 19 -20 l1 20 11 -20 c6 -11 16 -23 22
-27 8 -6 6 -11 -4 -18 -9 -6 -10 -10 -3 -10 6 0 19 10 27 22 15 21 16 21 17 3
0 -20 1 -20 9 0 7 17 9 16 9 -10 1 -23 4 -27 11 -15 8 12 10 11 10 -7 0 -13 5
-23 10 -23 6 0 10 12 10 28 0 21 2 24 10 12 5 -8 10 -26 11 -40 0 -23 1 -23 9
-5 5 12 9 14 9 6 1 -8 4 -12 7 -9 3 3 -2 23 -10 43 -20 46 -20 46 2 39 12 -4
12 -2 -3 7 -11 6 -36 26 -55 44 -19 18 -53 41 -75 51 l-40 19 55 6 c43 4 48
14 5 11 -5 -1 -22 17 -37 38 -15 22 -21 37 -13 34 8 -3 21 -17 30 -31 9 -13
19 -22 22 -19 3 3 0 12 -7 21 -8 9 -8 15 -2 15 6 0 13 -8 16 -18 4 -10 13 -19
21 -19 19 0 28 26 14 44 -7 7 -9 16 -6 19 6 6 28 -30 26 -43 -4 -21 3 -28 25
-28 13 0 22 4 19 9 -4 5 -1 6 6 2 7 -5 10 -13 8 -20 -3 -6 3 -12 13 -12 15 0
16 4 9 25 -15 37 -2 37 21 0 15 -23 19 -27 15 -11 -10 33 2 27 25 -15 20 -35
22 -26 5 22 -6 18 -5 18 5 2 6 -9 15 -15 21 -12 5 4 14 -5 21 -19 6 -14 15
-26 20 -26 5 0 6 -10 3 -22 -5 -17 -4 -19 3 -9 9 12 11 12 15 0 2 -8 2 -3 0
11 -11 65 -105 170 -153 170 -26 0 -97 38 -104 55 -5 13 -2 14 17 3 30 -16 47
-18 47 -6 0 6 7 4 17 -3 15 -13 15 -12 3 11 -13 25 -13 25 8 7 15 -14 22 -15
28 -6 4 7 3 10 -3 6 -5 -3 -10 0 -10 8 0 22 5 19 27 -17 11 -18 20 -27 20 -20
0 7 5 10 11 6 22 -13 -26 58 -58 86 -41 37 -106 47 -193 31 -36 -7 -77 -15
-92 -17 -45 -9 -32 3 23 21 55 19 63 30 9 15 -53 -15 -47 -3 6 14 27 8 40 15
29 16 -13 1 -15 4 -6 7 11 5 11 7 0 15 -10 7 -5 8 16 4 24 -5 27 -4 12 4 -22
14 -13 30 16 30 21 1 71 30 51 30 -5 0 0 7 10 15 26 20 8 20 -69 0 -60 -16
-125 -56 -125 -78 -1 -7 -15 -28 -33 -48 l-32 -36 -2 134 c-3 131 -4 137 -34
189 -17 30 -35 52 -40 49 -4 -3 -21 2 -36 11 l-28 16 25 -21z m14 -286 c16
-20 21 -32 12 -29 -20 8 -57 64 -42 64 2 0 16 -16 30 -35z m46 -17 c0 -6 -6
-5 -15 2 -8 7 -15 14 -15 16 0 2 7 1 15 -2 8 -4 15 -11 15 -16z m165 -98 c-3
-5 -14 -10 -23 -9 -14 0 -13 2 3 9 27 11 27 11 20 0z m-518 -6 c-3 -3 -12 -4
-19 -1 -8 3 -5 6 6 6 11 1 17 -2 13 -5z m741 -54 c3 -7 0 -10 -6 -6 -6 3 -12
0 -15 -6 -3 -7 -4 -3 -4 10 1 23 18 25 25 2z m-78 -10 c6 -11 8 -20 6 -20 -3
0 -10 9 -16 20 -6 11 -8 20 -6 20 3 0 10 -9 16 -20z m-20 -11 c0 -6 -4 -7 -10
-4 -5 3 -10 11 -10 16 0 6 5 7 10 4 6 -3 10 -11 10 -16z m-329 -6 c13 -16 12
-17 -3 -4 -17 13 -22 21 -14 21 2 0 10 -8 17 -17z m239 7 c0 -5 -2 -10 -4 -10
-3 0 -8 5 -11 10 -3 6 -1 10 4 10 6 0 11 -4 11 -10z m-311 -26 c9 -8 -55 -2
-74 6 -13 6 -5 7 25 3 25 -3 47 -7 49 -9z m304 -82 c13 -12 17 -12 17 -2 0 9
9 5 25 -10 28 -27 32 -40 10 -40 -8 0 -15 6 -15 14 0 8 -4 18 -10 21 -6 4 -7
-1 -3 -12 5 -13 0 -11 -19 7 -13 14 -33 30 -44 37 -19 12 -19 12 1 6 11 -3 28
-13 38 -21z m117 18 c0 -5 -2 -10 -4 -10 -3 0 -8 5 -11 10 -3 6 -1 10 4 10 6
0 11 -4 11 -10z m-120 -50 c0 -15 -5 -12 -26 11 -19 22 -19 22 4 10 12 -6 22
-16 22 -21z m-656 14 c30 -12 -3 -34 -50 -34 -51 0 -71 19 -22 21 l33 2 -35 7
c-34 7 -34 7 12 9 25 0 54 -2 62 -5z m216 -49 c-22 -23 -37 -32 -44 -25 -11
11 -11 11 34 39 48 29 49 27 10 -14z m-567 -17 c6 -22 5 -22 -8 -4 -17 22 -20
40 -6 32 5 -3 11 -16 14 -28z m601 20 c-5 -7 -9 -21 -9 -31 -2 -16 0 -16 19 1
40 36 49 37 32 4 -19 -36 -47 -48 -75 -30 -27 17 -26 22 7 47 32 24 36 25 26
9z m-394 -8 c-8 -5 -22 -10 -30 -10 -13 0 -13 1 0 10 8 5 22 10 30 10 13 0 13
-1 0 -10z m165 -40 c3 -5 1 -10 -4 -10 -6 0 -11 5 -11 10 0 6 2 10 4 10 3 0 8
-4 11 -10z m48 -16 c-2 -7 1 -15 8 -20 8 -5 10 -3 5 7 -4 8 0 5 10 -6 16 -20
16 -20 11 3 -3 12 -1 20 3 17 5 -3 10 0 12 7 3 7 16 -8 31 -32 28 -48 37 -45
12 4 -14 26 -14 27 0 16 38 -31 39 -50 3 -88 -18 -19 -27 -32 -20 -28 15 9 15
6 -4 -39 -25 -61 -10 -50 21 15 16 33 40 70 54 82 l25 23 -26 -32 c-29 -36
-52 -96 -45 -116 3 -7 6 -4 6 6 1 27 30 79 41 72 5 -3 12 4 15 16 4 11 9 19
11 16 3 -2 0 -17 -6 -33 -9 -23 -13 -25 -20 -14 -8 12 -10 10 -10 -8 0 -13 -5
-33 -11 -45 -9 -19 -8 -19 12 3 12 14 26 24 30 23 5 -2 9 5 9 15 0 9 5 24 10
32 8 11 9 7 4 -15 l-7 -30 32 32 c17 18 31 29 31 25 0 -5 6 -9 14 -9 8 0 15 3
14 6 -2 18 3 33 9 28 3 -4 15 1 26 10 11 10 17 12 13 5 -6 -10 0 -9 23 2 38
20 37 25 15 -123 -34 -233 -127 -551 -217 -744 -64 -134 -67 -137 -159 -144
l-76 -6 -46 94 c-59 123 -93 228 -117 367 -19 115 -26 287 -11 296 5 3 7 -9 5
-27 -2 -21 2 -15 11 18 l14 50 1 -60 c1 -43 4 -56 11 -45 9 13 10 13 11 0 1
-8 5 -1 9 15 7 27 8 25 10 -20 2 -36 4 -42 7 -20 7 48 23 54 25 10 l1 -40 7
45 7 45 3 -55 3 -55 7 40 c7 40 7 40 10 -15 1 -43 4 -49 10 -30 6 23 8 21 12
-15 l5 -40 3 45 3 45 7 -45 7 -45 1 52 c1 28 5 60 8 70 5 14 4 15 -4 4 -15
-21 -24 43 -14 89 l8 35 8 -55 c6 -43 10 -51 16 -35 7 17 9 16 11 -10 2 -28 2
-28 7 -5 4 24 5 24 13 5 6 -13 8 2 4 43 -5 60 -27 122 -44 122 -4 0 -36 27
-70 60 -34 32 -64 59 -66 60 -3 0 -11 0 -17 0 -10 0 -10 2 0 9 22 13 62 0 79
-26 9 -13 18 -21 20 -19 3 3 -5 19 -17 35 -28 41 -16 39 23 -1 22 -24 29 -27
24 -13 -7 20 -7 20 8 1 20 -26 19 -7 -1 22 -9 13 -11 22 -4 22 5 0 19 -15 30
-32 11 -18 20 -29 20 -24 0 4 9 -2 20 -15 l19 -24 1 25 c2 25 2 24 15 -5 8
-17 14 -23 15 -13 0 9 3 23 6 32 3 9 -10 32 -35 59 -23 24 -41 46 -41 48 0 3
8 5 19 5 10 0 17 -6 14 -12z m147 -24 c0 -21 -18 -17 -28 6 -11 23 -10 24 8
14 11 -6 20 -15 20 -20z m215 1 c-3 -6 -11 -11 -17 -11 -6 0 -6 6 2 15 14 17
26 13 15 -4z m312 -33 c-3 -7 -5 -2 -5 12 0 14 2 19 5 13 2 -7 2 -19 0 -25z
m-1107 8 c0 -2 -8 -10 -17 -17 -16 -13 -17 -12 -4 4 13 16 21 21 21 13z m35
-6 c-3 -5 -12 -10 -18 -10 -7 0 -6 4 3 10 19 12 23 12 15 0z m-83 -22 c-7 -7
-12 -8 -12 -2 0 14 12 26 19 19 2 -3 -1 -11 -7 -17z m748 12 c0 -5 -5 -10 -11
-10 -5 0 -7 5 -4 10 3 6 8 10 11 10 2 0 4 -4 4 -10z m-45 -30 c-4 -12 -9 -19
-12 -17 -3 3 -2 15 2 27 4 12 9 19 12 17 3 -3 2 -15 -2 -27z m-655 -78 c0 -9
-16 -35 -35 -57 l-35 -40 0 30 c0 17 5 37 10 45 8 13 10 12 10 -2 0 -10 5 -18
11 -18 5 0 7 5 4 10 -3 6 -2 10 3 10 5 0 12 9 15 20 6 25 17 26 17 2z m237
-14 c-3 -8 -6 -5 -6 6 -1 11 2 17 5 13 3 -3 4 -12 1 -19z m20 -20 c-3 -8 -6
-5 -6 6 -1 11 2 17 5 13 3 -3 4 -12 1 -19z m-90 -65 c-3 -10 -5 -4 -5 12 0 17
2 24 5 18 2 -7 2 -21 0 -30z m162 -19 c0 11 4 17 7 13 3 -3 2 -21 -2 -39 -7
-32 -8 -32 -15 -8 -4 14 -7 36 -7 50 0 22 1 22 8 -5 5 -18 8 -23 9 -11z m718
14 c-3 -8 -6 -5 -6 6 -1 11 2 17 5 13 3 -3 4 -12 1 -19z m-670 -30 c-3 -8 -6
-5 -6 6 -1 11 2 17 5 13 3 -3 4 -12 1 -19z m-560 -25 c-3 -10 -5 -4 -5 12 0
17 2 24 5 18 2 -7 2 -21 0 -30z"/>
<path d="M1261 1185 c1 -19 18 -51 18 -35 0 8 -4 22 -9 30 -5 8 -9 11 -9 5z"/>
<path d="M1262 1055 c0 -16 2 -22 5 -12 2 9 2 23 0 30 -3 6 -5 -1 -5 -18z"/>
<path d="M1131 854 c0 -11 3 -14 6 -6 3 7 2 16 -1 19 -3 4 -6 -2 -5 -13z"/>
<path d="M1298 1753 c7 -3 16 -2 19 1 4 3 -2 6 -13 5 -11 0 -14 -3 -6 -6z"/>
<path d="M1853 1633 c9 -2 23 -2 30 0 6 3 -1 5 -18 5 -16 0 -22 -2 -12 -5z"/>
<path d="M1386 1565 c10 -8 24 -14 29 -14 6 0 1 6 -9 14 -11 8 -24 15 -30 15
-5 0 -1 -7 10 -15z"/>
<path d="M695 1280 c10 -11 20 -20 23 -20 3 0 -3 9 -13 20 -10 11 -20 20 -23
20 -3 0 3 -9 13 -20z"/>
<path d="M2131 1260 c0 -8 4 -24 9 -35 l9 -20 0 20 c0 11 -4 27 -9 35 -9 13
-10 13 -9 0z"/>
<path d="M602 1105 c0 -16 2 -22 5 -12 2 9 2 23 0 30 -3 6 -5 -1 -5 -18z"/>
<path d="M551 1104 c0 -11 3 -14 6 -6 3 7 2 16 -1 19 -3 4 -6 -2 -5 -13z"/>
<path d="M482 1070 c0 -14 2 -19 5 -12 2 6 2 18 0 25 -3 6 -5 1 -5 -13z"/>
<path d="M392 970 c0 -14 2 -19 5 -12 2 6 2 18 0 25 -3 6 -5 1 -5 -13z"/>
<path d="M652 920 c0 -19 2 -27 5 -17 2 9 2 25 0 35 -3 9 -5 1 -5 -18z"/>
<path d="M743 880 c0 -25 2 -35 4 -22 2 12 2 32 0 45 -2 12 -4 2 -4 -23z"/>
<path d="M1842 880 c0 -14 2 -19 5 -12 2 6 2 18 0 25 -3 6 -5 1 -5 -13z"/>
</g>
</svg>
